PathFileType	4	(X/Y/Z)	T1_P1_Vision_Movement_3_0-659.trc
DataRate	CameraRate	NumFrames	NumMarkers	Units	OrigDataRate	OrigDataStartFrame	OrigNumFrames
60	60	7	27	m	60	411	659
Frame#	Time	RHip			RKnee			RAnkle			RBigToe			RSmallToe			RHeel			LHip			LKnee			LAnkle			LBigToe			LSmallToe			LHeel			Neck			Head			Nose			RShoulder			RElbow			RWrist			RThumb			RIndex			RPinky			LShoulder			LElbow			LWrist			LThumb			LIndex			LPinky		
		X1	Y1	Z1	X2	Y2	Z2	X3	Y3	Z3	X4	Y4	Z4	X5	Y5	Z5	X6	Y6	Z6	X7	Y7	Z7	X8	Y8	Z8	X9	Y9	Z9	X10	Y10	Z10	X11	Y11	Z11	X12	Y12	Z12	X13	Y13	Z13	X14	Y14	Z14	X15	Y15	Z15	X16	Y16	Z16	X17	Y17	Z17	X18	Y18	Z18	X19	Y19	Z19	X20	Y20	Z20	X21	Y21	Z21	X22	Y22	Z22	X23	Y23	Z23	X24	Y24	Z24	X25	Y25	Z25	X26	Y26	Z26	X27	Y27	Z27
412	6.866666666666666	-107.81684907304721	3871.49284560741	-634.8811385310962	246.83512035294814	4081.218423788673	-664.3180380043727	600.7789453648847	4263.942710372062	-684.2679142545768	687.4324042709064	4182.765415064569	-646.018043538883	677.5153792142324	4150.255880553815	-692.8393970412419	643.1888468437282	4317.448933985925	-698.3280987049135	-131.7729323615641	4048.743728470921	-501.63809540934426	214.02788917701292	4165.045227629495	-501.8085198961671	562.0775645488858	4335.466803926056	-514.7146463073468	641.0422278890876	4232.0200485331525	-411.56790279936024	612.0885199886585	4264.56704891065	-377.21303355287165	606.4371133305693	4373.934025904442	-538.3160659172039	-715.278102133184	3813.512021102902	-587.7163556518556	-948.4674421248468	3675.5310571925806	-485.371721647513	-799.9940845110762	3683.3495201508326	-459.76631352400625	-593.9434823984338	3726.500235432626	-703.3404899754546	-422.7820218660351	3637.3980277105306	-782.5307740755235	-589.1764223970175	3505.736085243253	-708.4920346685747	-667.6943494894173	3465.1497001161047	-655.3735199403569	-670.4201139030165	3458.4404153674827	-675.6637911654921	-650.1768845345352	3403.684855850453	-670.2271173305891	-642.6002325411257	3930.962788197584	-461.50556050189454	-402.0433933268735	4093.714302291423	-429.4806553598911	-152.60212685481335	4097.466149178903	-366.7770279374374	-29.987155793913537	4088.342322654425	-367.071895107254	6.863888695663595	4137.551345560851	-356.19155971906963	-17.817315035216993	4154.583991780403	-335.36224057523276
413	6.883333333333334	-108.90651412928118	3870.600376911547	-635.7655308989109	246.5258927405785	4079.2273852682874	-662.666618766235	601.3664190401249	4263.974933155847	-684.3350680886284	689.8718416526932	4194.953173876573	-648.9869326515948	678.0495159062242	4152.642471869618	-694.5098059887605	642.6107458466483	4316.942877811099	-698.1680740632069	-134.19712103420306	4047.452128022883	-501.1446745776407	212.95224320300107	4165.3652078816995	-503.196654546816	562.1682694144813	4335.695064190493	-515.0355671619983	639.3215342853855	4224.019483461239	-406.42942035292583	612.4954585123103	4268.173682124065	-377.8335100065017	606.516758965902	4374.1221751313515	-538.4323233118891	-715.4573582822037	3814.217655489335	-585.9161269649235	-948.4091214870891	3675.3607246000074	-483.79478596398764	-801.4863841660779	3689.4549487105787	-460.59443023445317	-594.0178591164762	3726.6030305936965	-703.3890110139096	-422.7755268735706	3637.6403607689144	-782.7691754090201	-587.8002108232488	3506.807328511309	-709.289896958012	-668.396276966169	3469.2817894519044	-655.8205568453478	-670.1040392353868	3458.6074824309485	-675.3421268690257	-650.8091824025939	3409.4193409080976	-672.2258540027786	-641.0760640441332	3921.562425187486	-461.54303564864114	-404.4592367824371	4092.5430507030114	-429.1583390372333	-154.54037287859288	4096.6895702950915	-366.57405715564283	-29.22282877669063	4081.137928188611	-365.7645991880331	6.313412254881435	4137.042269752166	-358.0016311086785	-18.991247752472685	4154.61450537637	-335.61203418584233
414	6.9	-109.37494669307252	3869.942168368657	-636.6691466234801	245.82091222436674	4073.698298251643	-658.7508797448147	600.8861458438683	4264.115229832043	-684.9721180394185	690.2485011303348	4200.758213920064	-650.4522307197177	678.311546177575	4153.839292905204	-695.3689148714186	641.3190040573717	4315.994141504359	-697.7560748256134	-135.47128995198153	4046.268728833712	-500.6370839323408	212.91619967059793	4165.600209706528	-503.86838785977386	560.3597602882493	4334.785413340544	-515.0995959397203	637.8767798099296	4217.37269092265	-402.1343979366045	613.2344277346862	4274.591300994142	-378.99442228111985	606.5357011733139	4374.328396103998	-538.6253214998892	-715.0515188998561	3815.395884297487	-585.3681404200885	-948.2451495751316	3674.8394091140385	-483.0173274203014	-802.3092244028827	3691.6432674163543	-459.62107612311945	-594.0635181072544	3726.673368761172	-703.4088813935876	-422.79100961961615	3637.648595389047	-782.6697425393419	-586.8462149232429	3507.5340989686047	-709.8459440609871	-667.9488133135849	3466.8184158200456	-653.7039764741411	-669.1499983588219	3458.8924019003925	-674.7694586240588	-651.2059428781707	3409.3543073788005	-672.2664577057076	-639.9171062800837	3914.4364213865438	-461.5651889223119	-405.5615762860683	4092.0083296527123	-429.00464232301096	-156.05485035996276	4095.899344578562	-366.33940184046173	-29.338978457442767	4080.589579793091	-365.65211372818067	5.080755212244272	4136.142611685647	-358.77374449017367	-19.090751244521254	4154.8023214112	-335.8050090772539
415	6.916666666666667	-109.97087009862597	3869.0798461552954	-636.1888364559383	244.94724127359225	4065.6646359192864	-654.0852983961133	599.6348927375699	4264.187076589586	-686.1771590695909	688.3744956198691	4195.573432807968	-649.228181174213	678.3332593488371	4153.969800310133	-695.5346390558855	640.1059147755827	4316.005208055833	-697.5251107219694	-135.40083177929958	4045.731204932903	-500.3480501916544	213.69122471380462	4165.473094322789	-503.8216991435415	557.916724230611	4333.405286355898	-514.971444116302	637.2178431993561	4214.451067282289	-400.21794256526067	613.9670611023564	4279.887004599339	-379.9795262409709	606.4516908420167	4374.406060501287	-538.7767744347194	-713.5835411388891	3816.1278176463684	-586.636363700203	-948.2097810021548	3674.8729289828216	-482.9531836181397	-802.9474210731943	3692.01375124686	-457.74220744184447	-594.0548063170753	3726.660747074994	-703.394576443151	-422.828662302326	3637.5843512908737	-782.0886370232831	-586.3905808397558	3507.834825161001	-710.0191568419873	-666.7512506172001	3460.1294866062294	-651.1362348374355	-667.8000390795835	3459.2102486503913	-674.4093909863084	-651.2604586677917	3405.3838790810278	-670.968848238134	-639.4585885771425	3911.5919013893454	-461.5671103999904	-405.19209965049083	4092.0651398167984	-428.96704749105436	-157.05257436264637	4095.230966980999	-366.10651281535144	-30.035942098951985	4086.451297393771	-366.7226773700928	4.662032341945768	4136.088009216086	-359.0964775902301	-18.054923361475737	4155.129109015647	-335.88211059639167
416	6.933333333333334	-111.46451329306713	3868.069523749201	-634.5061623479935	244.28120956425948	4057.7509277098334	-650.924239187457	598.4406268291116	4264.175181696498	-687.5050648082142	685.8102660995177	4183.721071648733	-646.3147773995506	678.2859343490888	4153.771868546567	-695.4441247057217	640.2241924204263	4318.9952680847755	-697.95426903539	-134.9410690391307	4045.6267096091365	-500.25784906953777	214.1129859326161	4164.759223210916	-503.4875527253571	556.5142715478529	4332.523588283596	-514.8228420039452	637.0933084193315	4213.986959248631	-399.9406809751589	614.4939490408709	4279.211728478377	-379.966973223551	606.2783859623488	4374.309935006407	-538.8293420550481	-711.2731647094973	3814.047932362677	-588.2754066555068	-948.7696994124086	3677.3858688869677	-483.6193249570062	-803.3551673900489	3694.385799649643	-456.70532982222915	-594.0245633966531	3726.602089408517	-703.3727432745911	-422.88401703894414	3637.5607417015644	-781.0950752143243	-585.8448465491117	3508.082433914379	-710.0299999332053	-665.8798289075309	3455.4060746388495	-650.3000662440269	-666.7048367299133	3459.474586416343	-674.3476754609637	-651.1437374974483	3402.7595243139085	-670.1090481404311	-639.4493584714296	3911.4629837544976	-461.5481719090526	-404.01436265897314	4092.36315307552	-428.9533686290364	-157.47111356831357	4094.9223720335676	-365.97050477624384	-30.3695440319665	4093.865365748391	-368.03462969767384	6.272783748137354	4137.592883413638	-359.4193826974051	-16.840991771349493	4155.455939517376	-335.8720089514977
417	6.95	-113.03631282782668	3867.310577087129	-632.9305230232105	243.80196739102706	4050.6710659537866	-648.9256424454587	598.126657884966	4264.541224216706	-688.7549409646605	684.2046983634374	4173.505117058468	-643.7353162566906	677.6943284656359	4151.290636758514	-693.5541795820131	641.7016500377554	4324.483598342386	-699.0635513743682	-134.6719492849126	4045.648936735477	-500.2552658764682	213.7193676493621	4163.74873964013	-503.22876999173354	556.4415550406164	4332.387763703765	-514.7267630112171	637.2341944319518	4214.623369654261	-400.536547434436	614.4197304447125	4271.842218519396	-378.78857654450474	606.277526974804	4374.289606681101	-538.8991024598998	-709.1673460155298	3807.27349455921	-588.1430757862609	-950.2624775966915	3683.7751258617154	-485.15173070122376	-803.7715211769815	3701.023712730486	-457.46689655160253	-594.0164320669238	3726.5623493063194	-703.371391344446	-422.92814025221344	3637.5981085109474	-780.1973460480192	-584.7036397451018	3508.5823728874766	-710.089046267803	-665.8843240534056	3455.6298118931886	-651.1597245554395	-666.2013279688875	3459.6727218474743	-674.4200620626153	-651.0187459254523	3404.5888396858677	-670.7322595350834	-639.5496743592832	3911.975023409728	-461.51893665501666	-403.04923612560634	4092.5635853302642	-428.9562184279905	-157.51527865283575	4094.9336858052584	-365.9248364774066	-29.984973018753124	4097.82008973464	-368.6190762923535	8.510752105133214	4139.42339045305	-359.50490040135384	-16.165265017854942	4155.7273684325055	-335.8408386027978
418	6.966666666666667	-113.66172017231202	3867.0904627693694	-632.2506860315265	243.24174352745507	4043.43655794859	-646.2928411374835	598.8502968927596	4265.372367427376	-689.6472312484459	684.2990020035031	4169.683736344153	-642.6464585520578	676.3698647837919	4145.714218535541	-689.323713053326	643.6569332214528	4328.160735916319	-700.0156681949595	-134.62687593706596	4045.6431837274317	-500.2590548785307	212.84777089671118	4163.797564830333	-503.35755039506165	557.1134051647985	4332.7536410041885	-514.7405296212776	637.7114121879708	4216.746800468947	-402.1612007180523	613.9505085232357	4263.969044327696	-377.4875826963828	607.0865882180055	4374.840941578255	-539.2213277694634	-708.4255300573378	3798.2157186807135	-585.9220554670655	-952.2833344589419	3692.3319505608897	-487.17220462545504	-804.4868623023654	3710.0810251197922	-459.37602162287163	-594.0369337471498	3726.576742879557	-703.3961583193492	-422.93692762049886	3637.6550663840117	-779.8023997148805	-583.7382010659718	3508.997989493289	-710.1519663182369	-666.5732758698975	3459.6218306132732	-652.7685384531937	-666.2135935834807	3459.8076945760813	-674.5062874105796	-651.0824557065882	3408.532955346298	-672.0455747878553	-639.6203974200878	3912.273217132743	-461.50295356679516	-403.07360741282014	4092.384195599167	-428.992631651739	-157.361167713558	4095.13697975837	-365.93793295768364	-29.780932598595143	4099.0414559514	-368.6757724730327	8.934385803552278	4139.873949590816	-359.088916418294	-16.001126908900773	4155.999821451444	-335.827199596314
